<svg width="86" height="85" viewBox="0 0 86 85" fill="none" xmlns="http://www.w3.org/2000/svg">
<path d="M81.1286 9.2245H41.2916L37.4488 3.33257C37.4488 3.33257 37.4488 3.20448 37.3207 3.20448C35.6555 1.2832 33.3498 0.258514 30.7879 0.258514H3.50405C1.96693 0.258514 0.814087 1.41128 0.814087 2.94831V61.0991C0.814087 63.4047 2.73549 65.1979 5.04117 65.1979H29.507C30.2755 65.1979 30.7879 64.6855 30.7879 63.917C30.7879 63.1485 30.2755 62.6361 29.507 62.6361H5.04117C4.14451 62.6361 3.37595 61.9957 3.37595 61.0991V24.2105H82.7938V61.0991C82.7938 61.9957 82.0252 62.6361 81.1286 62.6361H78.8229C78.0544 62.6361 77.542 63.1485 77.542 63.917C77.542 64.6855 78.0544 65.1979 78.8229 65.1979H81.1286C83.4343 65.1979 85.3557 63.4047 85.3557 61.0991V13.4513C85.3557 11.7862 83.5624 9.2245 81.1286 9.2245ZM3.37595 21.6488V2.94831C3.37595 2.82022 3.37595 2.82022 3.50405 2.82022H30.7879C32.5812 2.82022 34.2464 3.58874 35.2712 4.86959L39.4983 11.2739C39.7545 11.6581 40.1387 11.7862 40.523 11.7862H81.0005C81.8972 11.7862 82.6657 12.939 82.6657 13.3232V21.6488H3.37595Z" fill="white"/>
<path d="M65.2451 53.7982L79.0791 41.2458C79.9758 40.4773 80.4882 39.4526 80.4882 38.2999C80.4882 37.1471 80.1039 35.9943 79.3353 35.2258L75.7487 31.2552C74.0835 29.462 71.3935 29.3339 69.6002 30.999L63.7079 36.1224C63.7079 36.1224 63.5798 36.1224 63.5798 36.2505L55.2538 43.8075L40.9073 29.2058C40.3949 28.6934 39.6264 28.6934 39.114 29.2058L25.7923 42.2705C25.5361 42.5267 25.408 42.7828 25.408 43.1671C25.408 43.5514 25.5361 43.8075 25.7923 44.0637L39.6264 58.025L30.1475 66.7348L29.8913 66.991L20.9248 82.8736C20.6686 83.3859 20.6686 83.8983 21.0529 84.4106C21.4371 84.7949 22.0776 84.923 22.4619 84.6668L38.9859 77.3659C39.114 77.3659 39.3702 77.2378 39.4983 77.1098L49.4896 68.0157C50.3862 68.9123 65.3731 84.1545 65.3731 84.1545C65.6293 84.4106 66.0136 84.5387 66.2698 84.5387C66.6541 84.5387 66.9103 84.4106 67.1665 84.1545L80.4882 71.0897C80.7443 70.8336 80.8724 70.5774 80.8724 70.1931C80.8724 69.8089 80.7443 69.5527 80.4882 69.2965L65.2451 53.7982ZM61.1461 49.6995L68.3193 43.2952L70.4969 45.6007L63.4517 52.005L61.1461 49.6995ZM71.2654 32.7922C72.034 32.1518 73.0587 32.1518 73.8273 32.9203L77.4139 36.8909C77.6701 37.2752 77.9263 37.6594 77.9263 38.1718C77.9263 38.6841 77.6701 39.0684 77.4139 39.4526L72.4183 43.9356L69.4721 40.6054L66.526 37.2752L71.2654 32.7922ZM64.3484 39.0684L66.526 41.3739L59.3528 47.9063L57.1752 45.6007L64.3484 39.0684ZM32.7093 67.7595L41.4197 59.8182L43.5973 61.9957L34.7588 69.937L32.7093 67.7595ZM31.1722 69.8089L36.5521 75.7008L25.0237 80.8242L31.1722 69.8089ZM38.7297 74.2919L36.4241 71.7302L45.2625 63.7889L47.5682 66.2225L38.7297 74.2919ZM66.3979 81.4647L63.1956 78.2625L70.625 70.9617C71.1373 70.4493 71.1373 69.6808 70.625 69.1685C70.1126 68.6561 69.344 68.6561 68.8317 69.1685L61.4023 76.4693L58.1999 73.2672L62.2989 69.1685C62.8113 68.6561 62.8113 67.8876 62.2989 67.3753C61.7865 66.8629 61.018 66.8629 60.5056 67.3753L56.4066 71.474L53.3324 68.2719L60.7618 60.971C61.2742 60.4586 61.2742 59.6901 60.7618 59.1778C60.2494 58.6654 59.4809 58.6654 58.9685 59.1778L51.5391 66.4787L48.4648 63.2765L52.5638 59.1778C53.0762 58.6654 53.0762 57.8969 52.5638 57.3846C52.0514 56.8722 51.2829 56.8722 50.7705 57.3846L46.6715 61.4833L43.5973 58.2812L51.0267 50.9803C51.5391 50.468 51.5391 49.6995 51.0267 49.1871C50.5143 48.6748 49.7458 48.6748 49.2334 49.1871L41.804 56.488L38.7297 53.2859L42.8287 49.1871C43.3411 48.6748 43.3411 47.9063 42.8287 47.3939C42.3163 46.8816 41.5478 46.8816 41.0354 47.3939L36.6802 51.4927L33.606 48.2905L41.0354 40.9897C41.5478 40.4773 41.5478 39.7088 41.0354 39.1965C40.523 38.6841 39.7545 38.6841 39.2421 39.1965L31.8127 46.4973L28.6104 43.1671L40.0107 31.8956L62.427 54.6948L77.7982 70.3212L66.3979 81.4647Z" fill="white"/>
<path d="M8.24352 35.0978H28.3542C29.1227 35.0978 29.6351 34.5854 29.6351 33.8169C29.6351 33.0484 29.1227 32.536 28.3542 32.536H8.24352C7.47496 32.536 6.96259 33.0484 6.96259 33.8169C6.96259 34.4573 7.60305 35.0978 8.24352 35.0978Z" fill="white"/>
<path d="M8.24352 45.2165H21.9495C22.7181 45.2165 23.2304 44.7042 23.2304 43.9356C23.2304 43.1671 22.7181 42.6548 21.9495 42.6548H8.24352C7.47496 42.6548 6.96259 43.1671 6.96259 43.9356C6.96259 44.7042 7.60305 45.2165 8.24352 45.2165Z" fill="white"/>
<path d="M8.24352 55.4633H28.3542C29.1227 55.4633 29.6351 54.951 29.6351 54.1825C29.6351 53.414 29.1227 52.9016 28.3542 52.9016H8.24352C7.47496 52.9016 6.96259 53.414 6.96259 54.1825C6.96259 54.8229 7.60305 55.4633 8.24352 55.4633Z" fill="white"/>
</svg>
