<svg width="85" height="85" viewBox="0 0 85 85" fill="none" xmlns="http://www.w3.org/2000/svg">
<path d="M63.4054 39.8075H60.5874V42.6256H63.4054V39.8075Z" fill="white"/>
<path d="M57.7693 39.8075H54.9513V42.6256H57.7693V39.8075Z" fill="white"/>
<path d="M52.1333 39.8075H49.3153V42.6256H52.1333V39.8075Z" fill="white"/>
<path d="M84.5405 15.8541V13.0361H67.6324H56.3604V10.218C56.3604 4.78058 51.9347 0.354828 46.4973 0.354828H38.0432C32.6059 0.354828 28.1802 4.78058 28.1802 10.218V13.0361H16.9081C16.1289 13.0361 15.4991 13.6659 15.4991 14.4451V41.2166C15.4991 42.1085 15.6823 42.9553 15.9866 43.7416L1.05676 47.6023C0.435384 47.7629 0 48.3237 0 48.9662C0 49.6088 0.435384 50.1695 1.05676 50.3302L19.7261 55.1575V62.352H4.22703V65.17H19.7261V67.9881H8.45405V70.8062H19.7261V73.6242H12.6811V76.4423H20.9083L41.825 83.4141C41.9687 83.462 42.1209 83.4874 42.2703 83.4874C42.4196 83.4874 42.5718 83.462 42.7155 83.4141L63.8506 76.369C64.4269 76.1774 64.8144 75.6405 64.8144 75.0332V55.1575L78.9045 51.5138V71.8812L76.2344 77.22C76.0358 77.616 76.0358 78.0838 76.2344 78.4811L79.0524 84.1172C79.292 84.5949 79.7795 84.8964 80.3135 84.8964C80.8475 84.8964 81.335 84.5949 81.5746 84.1172L84.3926 78.4811C84.5913 78.0852 84.5913 77.6174 84.3926 77.22L81.7225 71.8827V50.7853L83.4838 50.3302C84.1051 50.1695 84.5405 49.6088 84.5405 48.9662C84.5405 48.3237 84.1051 47.7629 83.4838 47.6023L68.5539 43.7402C68.8583 42.9553 69.0414 42.1085 69.0414 41.2166V27.1263H76.0865V24.3083H69.0414V21.4902H80.3135V18.6722H69.0414V15.8541H84.5405ZM80.3135 80.3368L79.0708 77.8513L80.3135 75.3658L81.5563 77.8513L80.3135 80.3368ZM30.9982 10.218C30.9982 6.33333 34.1586 3.17288 38.0432 3.17288H46.4973C50.3819 3.17288 53.5423 6.33333 53.5423 10.218V13.0361H50.7243V10.218C50.7243 7.88748 48.8278 5.99093 46.4973 5.99093H38.0432C35.7127 5.99093 33.8162 7.88748 33.8162 10.218V13.0361H30.9982V10.218ZM47.9063 13.0361H36.6342V10.218C36.6342 9.44023 37.2655 8.80899 38.0432 8.80899H46.4973C47.2751 8.80899 47.9063 9.44023 47.9063 10.218V13.0361ZM18.3171 15.8541H66.2234V21.4902C66.2234 23.8208 64.3269 25.7173 61.9964 25.7173H59.1784H53.5423H47.9063V21.4902C47.9063 20.711 47.2765 20.0812 46.4973 20.0812H38.0432C37.2641 20.0812 36.6342 20.711 36.6342 21.4902V25.7173H30.9982H25.3622H22.5441C20.2136 25.7173 18.3171 23.8208 18.3171 21.4902V15.8541ZM66.2234 41.2166C66.2234 42.1747 65.8909 43.0483 65.3526 43.7585C65.3442 43.7683 65.3315 43.7754 65.3231 43.7867C65.1244 44.0445 64.9004 44.2728 64.658 44.4743C64.6467 44.4841 64.6355 44.494 64.6228 44.5024C64.403 44.6814 64.1663 44.8293 63.9183 44.9604C63.876 44.9815 63.8366 45.0083 63.7943 45.028C63.5674 45.1379 63.3293 45.2182 63.0856 45.2845C63.0264 45.3 62.9714 45.3253 62.9122 45.338C62.6149 45.4042 62.3092 45.4437 61.9964 45.4437H22.5441C22.2313 45.4437 21.9256 45.4042 21.6269 45.3366C21.5663 45.3239 21.5113 45.2985 21.4536 45.2831C21.2112 45.2168 20.9717 45.1365 20.7462 45.0266C20.7026 45.0069 20.6631 44.9801 20.6208 44.959C20.3743 44.8293 20.1361 44.68 19.9177 44.5024C19.9065 44.4926 19.8952 44.4827 19.8825 44.4743C19.6402 44.2728 19.4161 44.0445 19.2175 43.7867C19.209 43.7754 19.1977 43.7698 19.1879 43.7585C18.6496 43.0483 18.3171 42.1747 18.3171 41.2166V27.0897C19.4979 27.9844 20.952 28.5354 22.5441 28.5354H23.9531V32.7624C23.9531 33.5416 24.583 34.1715 25.3622 34.1715H30.9982C31.7774 34.1715 32.4072 33.5416 32.4072 32.7624V28.5354H38.0432H46.4973H52.1333V32.7624C52.1333 33.5416 52.7632 34.1715 53.5423 34.1715H59.1784C59.9576 34.1715 60.5874 33.5416 60.5874 32.7624V28.5354H61.9964C63.5886 28.5354 65.0427 27.9844 66.2234 27.0897V41.2166ZM26.7712 28.5354H29.5892V31.3534H26.7712V28.5354ZM45.0883 25.7173H39.4522V22.8993H45.0883V25.7173ZM54.9513 28.5354H57.7694V31.3534H54.9513V28.5354ZM61.9964 74.0173L42.2703 80.5932L22.5441 74.0173V55.8874L41.918 60.8979C42.0336 60.9275 42.1519 60.943 42.2703 60.943C42.3886 60.943 42.507 60.9275 42.6225 60.8979L61.9964 55.8874V74.0173ZM42.2703 58.0784L7.03518 48.9662L17.6084 46.2313C18.2523 46.8654 19.0146 47.374 19.8614 47.7249C20.0178 47.7897 20.1855 47.8221 20.3447 47.8757C20.6124 47.9644 20.8745 48.0645 21.1549 48.1208C21.6072 48.2124 22.0721 48.2617 22.5441 48.2617H61.9964C62.4684 48.2617 62.9334 48.2124 63.3857 48.1208C63.6661 48.0645 63.9281 47.963 64.1959 47.8757C64.3565 47.8221 64.5241 47.7897 64.6791 47.7249C65.526 47.374 66.2896 46.8654 66.9321 46.2313L77.5053 48.9662L42.2703 58.0784Z" fill="white"/>
</svg>
