<svg width="85" height="86" viewBox="0 0 85 86" fill="none" xmlns="http://www.w3.org/2000/svg">
<path d="M66.221 75.5065L65.7954 75.2989L65.3766 75.5201C60.5212 78.0845 54.9877 79.543 49.1081 79.543C42.2814 79.543 35.916 77.5833 30.5432 74.1987C32.3583 74.4636 34.1944 74.6009 36.0366 74.6009C57.3282 74.6009 74.6556 57.337 74.6556 36.1081C74.6556 29.0068 72.7136 22.3491 69.3344 16.6331C78.1609 22.9257 83.9098 33.225 83.9098 44.86C83.9098 52.8464 81.1961 60.1968 76.6446 66.058L76.3368 66.4543L76.498 66.9294L82.022 83.2154L66.221 75.5065Z" stroke="white" stroke-width="1.86489" stroke-linecap="round"/>
<path d="M26.4083 25.1874C28.4234 21.6751 32.3408 19.2696 36.8563 19.2696C41.3766 19.2696 45.2934 21.6746 47.3068 25.1874H26.4083Z" stroke="white" stroke-width="1.24326" stroke-linecap="round" stroke-linejoin="bevel"/>
<path d="M33.7693 34.3967C33.7693 33.1535 34.7833 32.1409 36.0368 32.1409C37.2898 32.1409 38.3022 33.1521 38.3022 34.3967C38.3022 35.6442 37.2897 36.6544 36.0368 36.6544C34.7833 36.6544 33.7693 35.6437 33.7693 34.3967Z" stroke="white" stroke-width="1.24326"/>
<path d="M13.1906 34.3967C13.1906 33.1526 14.2016 32.1409 15.4551 32.1409C16.7101 32.1409 17.7215 33.1521 17.7215 34.3967C17.7215 35.6441 16.7092 36.6544 15.4551 36.6544C14.2016 36.6544 13.1906 35.6446 13.1906 34.3967Z" stroke="white" stroke-width="1.24326"/>
<path d="M23.2483 34.3967C23.2483 33.1537 24.2621 32.1409 25.5167 32.1409C26.7686 32.1409 27.7812 33.152 27.7812 34.3967C27.7812 35.6444 26.7685 36.6544 25.5167 36.6544C24.2621 36.6544 23.2483 35.6435 23.2483 34.3967Z" stroke="white" stroke-width="1.24326"/>
<path d="M43.7887 34.3967C43.7887 33.1527 44.7995 32.1409 46.0542 32.1409C47.3075 32.1409 48.3206 33.1524 48.3206 34.3967C48.3206 35.644 47.3074 36.6544 46.0542 36.6544C44.7995 36.6544 43.7887 35.6445 43.7887 34.3967Z" stroke="white" stroke-width="1.24326"/>
<path d="M8.9402 58.2773L9.15503 57.644L8.74496 57.1157C4.23373 51.3036 1.54392 44.0225 1.54392 36.1081C1.54392 17.1273 16.9819 1.73587 36.0357 1.73587C55.0896 1.73587 70.5285 17.1282 70.5276 36.108C70.5276 55.088 55.0905 70.4803 36.0357 70.4803C30.2091 70.4803 24.7243 69.0348 19.9124 66.4933L19.3541 66.1984L18.7866 66.4752L3.65569 73.8572L8.9402 58.2773ZM64.6807 37.2985L64.6826 37.2973C65.8199 36.5954 66.6163 35.5232 66.6165 34.2399C66.6168 32.9559 65.8199 31.8843 64.6818 31.1846C64.6818 31.1846 64.6818 31.1845 64.6817 31.1845L57.4646 26.7464L57.4645 26.7464C56.5343 26.1743 55.5767 25.6533 54.7719 25.2708C54.3708 25.0802 53.9917 24.9163 53.6634 24.7972C53.3889 24.6976 52.9867 24.5657 52.6129 24.5657H51.6794C49.2298 18.9852 43.5021 15.0826 36.8573 15.0826C30.2141 15.0826 24.4876 18.9863 22.0382 24.5657H20.4157H20.4157H20.4157H20.4156H20.4156H20.4155H20.4154H20.4153H20.4152H20.4151H20.415H20.4149H20.4148H20.4146H20.4145H20.4143H20.4142H20.414H20.4138H20.4136H20.4134H20.4132H20.4129H20.4127H20.4125H20.4122H20.4119H20.4117H20.4114H20.4111H20.4108H20.4105H20.4102H20.4098H20.4095H20.4091H20.4088H20.4084H20.408H20.4077H20.4073H20.4069H20.4065H20.406H20.4056H20.4052H20.4047H20.4043H20.4038H20.4033H20.4028H20.4023H20.4018H20.4013H20.4008H20.4003H20.3997H20.3992H20.3986H20.398H20.3975H20.3969H20.3963H20.3957H20.3951H20.3945H20.3938H20.3932H20.3926H20.3919H20.3912H20.3906H20.3899H20.3892H20.3885H20.3878H20.3871H20.3864H20.3856H20.3849H20.3841H20.3834H20.3826H20.3818H20.381H20.3802H20.3794H20.3786H20.3778H20.377H20.3762H20.3753H20.3745H20.3736H20.3727H20.3719H20.371H20.3701H20.3692H20.3683H20.3673H20.3664H20.3655H20.3645H20.3636H20.3626H20.3617H20.3607H20.3597H20.3587H20.3577H20.3567H20.3557H20.3546H20.3536H20.3526H20.3515H20.3505H20.3494H20.3483H20.3472H20.3461H20.345H20.3439H20.3428H20.3417H20.3406H20.3394H20.3383H20.3371H20.336H20.3348H20.3336H20.3324H20.3312H20.33H20.3288H20.3276H20.3264H20.3252H20.3239H20.3227H20.3214H20.3202H20.3189H20.3176H20.3163H20.315H20.3137H20.3124H20.3111H20.3098H20.3085H20.3071H20.3058H20.3044H20.3031H20.3017H20.3003H20.2989H20.2975H20.2961H20.2947H20.2933H20.2919H20.2905H20.289H20.2876H20.2861H20.2847H20.2832H20.2817H20.2803H20.2788H20.2773H20.2758H20.2743H20.2728H20.2712H20.2697H20.2682H20.2666H20.2651H20.2635H20.262H20.2604H20.2588H20.2572H20.2556H20.254H20.2524H20.2508H20.2492H20.2476H20.2459H20.2443H20.2426H20.241H20.2393H20.2376H20.236H20.2343H20.2326H20.2309H20.2292H20.2275H20.2258H20.224H20.2223H20.2206H20.2188H20.2171H20.2153H20.2136H20.2118H20.21H20.2082H20.2064H20.2046H20.2028H20.201H20.1992H20.1974H20.1956H20.1937H20.1919H20.19H20.1882H20.1863H20.1845H20.1826H20.1807H20.1788H20.1769H20.175H20.1731H20.1712H20.1693H20.1674H20.1654H20.1635H20.1615H20.1596H20.1576H20.1557H20.1537H20.1517H20.1497H20.1478H20.1458H20.1438H20.1418H20.1397H20.1377H20.1357H20.1337H20.1316H20.1296H20.1276H20.1255H20.1234H20.1214H20.1193H20.1172H20.1151H20.1131H20.111H20.1089H20.1067H20.1046H20.1025H20.1004H20.0983H20.0961H20.094H20.0918H20.0897H20.0875H20.0854H20.0832H20.081H20.0788H20.0766H20.0745H20.0723H20.0701H20.0678H20.0656H20.0634H20.0612H20.059H20.0567H20.0545H20.0522H20.05H20.0477H20.0454H20.0432H20.0409H20.0386H20.0363H20.034H20.0317H20.0294H20.0271H20.0248H20.0225H20.0202H20.0179H20.0155H20.0132H20.0108H20.0085H20.0061H20.0038H20.0014H19.999H19.9967H19.9943H19.9919H19.9895H19.9871H19.9847H19.9823H19.9799H19.9775H19.9751H19.9726H19.9702H19.9678H19.9653H19.9629H19.9604H19.958H19.9555H19.9531H19.9506H19.9481H19.9456H19.9432H19.9407H19.9382H19.9357H19.9332H19.9307H19.9282H19.9256H19.9231H19.9206H19.9181H19.9155H19.913H19.9104H19.9079H19.9053H19.9028H19.9002H19.8977H19.8951H19.8925H19.8899H19.8873H19.8848H19.8822H19.8796H19.877H19.8744H19.8717H19.8691H19.8665H19.8639H19.8612H19.8586H19.856H19.8533H19.8507H19.848H19.8454H19.8427H19.8401H19.8374H19.8347H19.832H19.8294H19.8267H19.824H19.8213H19.8186H19.8159H19.8132H19.8105H19.8078H19.8051H19.8023H19.7996H19.7969H19.7942H19.7914H19.7887H19.7859H19.7832H19.7804H19.7777H19.7749H19.7722H19.7694H19.7666H19.7638H19.7611H19.7583H19.7555H19.7527H19.7499H19.7471H19.7443H19.7415H19.7387H19.7359H19.7331H19.7303H19.7274H19.7246H19.7218H19.719H19.7161H19.7133H19.7104H19.7076H19.7047H19.7019H19.699H19.6962H19.6933H19.6904H19.6876H19.6847H19.6818H19.6789H19.676H19.6731H19.6703H19.6674H19.6645H19.6616H19.6587H19.6557H19.6528H19.6499H19.647H19.6441H19.6412H19.6382H19.6353H19.6324H19.6294H19.6265H19.6236H19.6206H19.6177H19.6147H19.6118H19.6088H19.6058H19.6029H19.5999H19.5969H19.594H19.591H19.588H19.585H19.582H19.5791H19.5761H19.5731H19.5701H19.5671H19.5641H19.5611H19.5581H19.5551H19.5521H19.549H19.546H19.543H19.54H19.537H19.5339H19.5309H19.5279H19.5248H19.5218H19.5188H19.5157H19.5127H19.5096H19.5066H19.5035H19.5005H19.4974H19.4943H19.4913H19.4882H19.4851H19.4821H19.479H19.4759H19.4729H19.4698H19.4667H19.4636H19.4605C19.0869 24.5657 18.6846 24.6978 18.4107 24.7972C18.0826 24.9163 17.7036 25.0802 17.3025 25.2708C16.4978 25.6533 15.54 26.1744 14.6103 26.7467L7.39447 31.1846L7.39414 31.1848C6.25565 31.8855 5.45752 32.9574 5.45752 34.2418C5.45752 35.5264 6.25581 36.5982 7.39456 37.2984L7.39468 37.2985L14.6101 41.7342C15.542 42.3081 16.4998 42.8289 17.3043 43.2107C17.7053 43.4009 18.084 43.5643 18.4121 43.683C18.6865 43.7823 19.0877 43.9133 19.4605 43.9133H20.4157H20.6702L22.6574 47.4456L23.0139 48.0792H23.7409H33.4628H38.6096H48.3335H49.061L49.4174 47.445L51.4017 43.9133H51.6597H51.6597H51.6597H51.6598H51.6598H51.6599H51.66H51.6601H51.6601H51.6603H51.6604H51.6605H51.6606H51.6608H51.6609H51.6611H51.6612H51.6614H51.6616H51.6618H51.662H51.6622H51.6624H51.6627H51.6629H51.6632H51.6634H51.6637H51.664H51.6643H51.6646H51.6649H51.6652H51.6655H51.6659H51.6662H51.6666H51.6669H51.6673H51.6677H51.6681H51.6685H51.6689H51.6693H51.6697H51.6702H51.6706H51.6711H51.6715H51.672H51.6725H51.673H51.6735H51.674H51.6745H51.675H51.6756H51.6761H51.6767H51.6772H51.6778H51.6784H51.679H51.6796H51.6802H51.6808H51.6814H51.6821H51.6827H51.6833H51.684H51.6847H51.6854H51.686H51.6867H51.6874H51.6881H51.6889H51.6896H51.6903H51.6911H51.6918H51.6926H51.6934H51.6941H51.6949H51.6957H51.6965H51.6973H51.6982H51.699H51.6998H51.7007H51.7015H51.7024H51.7033H51.7042H51.7051H51.7059H51.7069H51.7078H51.7087H51.7096H51.7106H51.7115H51.7125H51.7134H51.7144H51.7154H51.7164H51.7174H51.7184H51.7194H51.7204H51.7214H51.7225H51.7235H51.7246H51.7256H51.7267H51.7278H51.7289H51.7299H51.731H51.7322H51.7333H51.7344H51.7355H51.7367H51.7378H51.739H51.7401H51.7413H51.7425H51.7437H51.7449H51.7461H51.7473H51.7485H51.7497H51.751H51.7522H51.7535H51.7547H51.756H51.7572H51.7585H51.7598H51.7611H51.7624H51.7637H51.765H51.7664H51.7677H51.769H51.7704H51.7717H51.7731H51.7745H51.7758H51.7772H51.7786H51.78H51.7814H51.7828H51.7843H51.7857H51.7871H51.7886H51.79H51.7915H51.7929H51.7944H51.7959H51.7974H51.7989H51.8004H51.8019H51.8034H51.8049H51.8065H51.808H51.8095H51.8111H51.8127H51.8142H51.8158H51.8174H51.819H51.8206H51.8222H51.8238H51.8254H51.827H51.8286H51.8303H51.8319H51.8336H51.8352H51.8369H51.8385H51.8402H51.8419H51.8436H51.8453H51.847H51.8487H51.8504H51.8521H51.8539H51.8556H51.8574H51.8591H51.8609H51.8626H51.8644H51.8662H51.868H51.8698H51.8715H51.8734H51.8752H51.877H51.8788H51.8806H51.8825H51.8843H51.8862H51.888H51.8899H51.8917H51.8936H51.8955H51.8974H51.8993H51.9012H51.9031H51.905H51.9069H51.9088H51.9108H51.9127H51.9147H51.9166H51.9186H51.9205H51.9225H51.9245H51.9265H51.9284H51.9304H51.9324H51.9344H51.9365H51.9385H51.9405H51.9425H51.9446H51.9466H51.9487H51.9507H51.9528H51.9548H51.9569H51.959H51.9611H51.9632H51.9653H51.9674H51.9695H51.9716H51.9737H51.9758H51.9779H51.9801H51.9822H51.9844H51.9865H51.9887H51.9908H51.993H51.9952H51.9974H51.9996H52.0018H52.004H52.0062H52.0084H52.0106H52.0128H52.015H52.0173H52.0195H52.0218H52.024H52.0263H52.0285H52.0308H52.033H52.0353H52.0376H52.0399H52.0422H52.0445H52.0468H52.0491H52.0514H52.0537H52.056H52.0584H52.0607H52.0631H52.0654H52.0677H52.0701H52.0725H52.0748H52.0772H52.0796H52.082H52.0843H52.0867H52.0891H52.0915H52.0939H52.0964H52.0988H52.1012H52.1036H52.1061H52.1085H52.1109H52.1134H52.1158H52.1183H52.1208H52.1232H52.1257H52.1282H52.1306H52.1331H52.1356H52.1381H52.1406H52.1431H52.1456H52.1481H52.1507H52.1532H52.1557H52.1582H52.1608H52.1633H52.1659H52.1684H52.171H52.1735H52.1761H52.1787H52.1813H52.1838H52.1864H52.189H52.1916H52.1942H52.1968H52.1994H52.202H52.2046H52.2073H52.2099H52.2125H52.2151H52.2178H52.2204H52.2231H52.2257H52.2284H52.231H52.2337H52.2364H52.239H52.2417H52.2444H52.2471H52.2498H52.2524H52.2551H52.2578H52.2605H52.2633H52.266H52.2687H52.2714H52.2741H52.2769H52.2796H52.2823H52.2851H52.2878H52.2906H52.2933H52.2961H52.2988H52.3016H52.3044H52.3071H52.3099H52.3127H52.3155H52.3183H52.3211H52.3239H52.3267H52.3295H52.3323H52.3351H52.3379H52.3407H52.3435H52.3464H52.3492H52.352H52.3549H52.3577H52.3605H52.3634H52.3662H52.3691H52.372H52.3748H52.3777H52.3806H52.3834H52.3863H52.3892H52.3921H52.3949H52.3978H52.4007H52.4036H52.4065H52.4094H52.4123H52.4152H52.4182H52.4211H52.424H52.4269H52.4298H52.4328H52.4357H52.4386H52.4416H52.4445H52.4475H52.4504H52.4534H52.4563H52.4593H52.4622H52.4652H52.4682H52.4711H52.4741H52.4771H52.4801H52.483H52.486H52.489H52.492H52.495H52.498H52.501H52.504H52.507H52.51H52.513H52.516H52.5191H52.5221H52.5251H52.5281H52.5312H52.5342H52.5372H52.5403H52.5433H52.5463H52.5494H52.5524H52.5555H52.5585H52.5616H52.5646H52.5677H52.5708H52.5738H52.5769H52.58H52.583H52.5861H52.5892H52.5923H52.5954H52.5984H52.6015H52.6046H52.6077H52.6108H52.6139C52.9867 43.9133 53.388 43.7828 53.6636 43.6832C53.9923 43.5645 54.3716 43.4011 54.7729 43.2107C55.5777 42.8289 56.5349 42.3081 57.4646 41.734C57.4649 41.7338 57.4653 41.7336 57.4656 41.7334L64.6807 37.2985Z" stroke="white" stroke-width="2.48652"/>
<path d="M53.8483 34.3967C53.8483 33.153 54.8599 32.1409 56.1148 32.1409C57.3681 32.1409 58.3812 33.1524 58.3812 34.3967C58.3812 35.6441 57.3688 36.6544 56.1148 36.6544C54.8599 36.6544 53.8483 35.6442 53.8483 34.3967Z" stroke="white" stroke-width="1.24326"/>
</svg>
