<svg width="84" height="78" viewBox="0 0 84 78" fill="none" xmlns="http://www.w3.org/2000/svg">
<path d="M83.3485 65.0686L75.7174 61.9109C77.1646 59.5426 78.2172 56.3849 78.2172 54.4114C78.2172 50.5958 74.4017 47.4381 69.7967 47.4381C65.1917 47.4381 61.3761 50.5958 61.3761 54.4114C61.3761 56.3849 62.2971 59.1479 63.6128 61.5162L55.7186 64.8055L48.6138 61.9109C50.0611 59.5426 51.1136 56.3849 51.1136 54.4114C51.1136 50.5958 47.2981 47.4381 42.6931 47.4381C38.0881 47.4381 34.2725 50.5958 34.2725 54.4114C34.2725 56.3849 35.1935 59.1479 36.5092 61.5162L28.615 64.8055L21.5102 61.9109C22.9574 59.5426 24.01 56.3849 24.01 54.4114C24.01 50.5958 20.1945 47.4381 15.5895 47.4381C10.9845 47.4381 7.16894 50.5958 7.16894 54.4114C7.16894 56.3849 8.08993 59.1479 9.40564 61.5162L0.853533 65.0686C0.45882 65.2002 0.195679 65.5949 0.195679 65.9896V70.5946C0.195679 74.2786 3.22181 77.4363 6.90579 77.4363H22.6943C25.0626 77.4363 27.1677 76.2521 28.3518 74.2786C29.536 76.1206 31.6411 77.4363 34.0094 77.4363H49.7979C52.1662 77.4363 54.2713 76.2521 55.4555 74.2786C56.6396 76.1206 58.7447 77.4363 61.113 77.4363H76.9015C80.5855 77.4363 83.6116 74.4101 83.6116 70.5946V65.9896C84.0063 65.4633 83.7432 65.2002 83.3485 65.0686ZM69.7967 49.2801C73.3491 49.2801 76.2437 51.5168 76.2437 54.2798C76.2437 57.4375 73.086 64.1476 69.7967 64.1476C66.639 64.1476 63.3497 57.5691 63.3497 54.2798C63.4813 51.6484 66.2443 49.2801 69.7967 49.2801ZM42.6931 49.2801C46.2455 49.2801 49.14 51.5168 49.14 54.2798C49.14 57.4375 45.9824 64.1476 42.6931 64.1476C39.5354 64.1476 36.2461 57.5691 36.2461 54.2798C36.2461 51.6484 39.1407 49.2801 42.6931 49.2801ZM15.5895 49.2801C19.1419 49.2801 22.0364 51.5168 22.0364 54.2798C22.0364 55.9902 20.9839 59.2795 19.1419 61.6478C18.3525 62.7003 17.0368 64.016 15.5895 64.016C14.1422 64.016 12.6949 62.5688 11.7739 61.2531C10.0635 58.8848 9.1425 55.8587 9.1425 54.1482C9.1425 51.6484 12.0371 49.2801 15.5895 49.2801ZM23.3522 75.3311V70.3314H21.3786V75.3311H8.74779V70.1999H6.77422V75.3311C4.27438 75.068 2.43238 73.0944 2.43238 70.5946V66.6475L10.7213 63.2266C11.9055 64.8055 13.7475 66.2527 15.721 66.2527C17.563 66.2527 19.1419 65.0686 20.326 63.6213L27.5624 66.5159V70.5946C27.5624 70.9893 27.5624 71.384 27.694 71.6472C27.1677 73.6207 25.4573 75.068 23.3522 75.3311ZM50.4558 75.3311V70.3314H48.4822V75.3311H35.8514V70.1999H33.8778V75.3311C31.7727 75.1996 30.0623 73.6207 29.6676 71.6472C29.6676 71.2524 29.7991 70.9893 29.7991 70.5946V66.5159L37.825 63.095C39.0091 64.6739 40.8511 66.1212 42.8246 66.1212C44.6666 66.1212 46.2455 64.937 47.4296 63.4898L54.666 66.3843V70.463C54.666 70.8577 54.666 71.2524 54.7976 71.5156C54.2713 73.6207 52.5609 75.068 50.4558 75.3311ZM82.0328 70.463C82.0328 72.9629 80.0592 75.068 77.6909 75.1996V70.1999H75.7174V75.3311H63.0866V70.1999H61.113V75.3311C59.0079 75.1996 57.2974 73.6207 56.9027 71.6472C56.9027 71.2524 57.0343 70.9893 57.0343 70.5946V66.5159L65.0601 63.095C66.2443 64.6739 68.0863 66.1212 70.0598 66.1212C71.9018 66.1212 73.4807 64.937 74.6648 63.4898L82.1643 66.5159V70.463H82.0328Z" fill="white"/>
<path d="M77.2962 30.9917H36.3776V32.9653H77.2962V36.9124H36.3776V38.886H78.3488C78.875 38.886 79.4013 38.4913 79.4013 37.8334V6.38795C79.4013 5.86167 79.0066 5.33539 78.3488 5.33539H36.3776C35.8514 5.33539 35.3251 5.7301 35.3251 6.38795V16.6505H37.2986V7.44052H77.2962V30.9917Z" fill="white"/>
<path d="M0.723389 24.8079V29.4129V42.3068C0.723389 42.8331 1.1181 43.3594 1.77596 43.3594H6.77565C7.30193 43.3594 7.82822 42.9647 7.82822 42.3068V29.4129H5.72308V41.2543H2.69695V29.4129V24.8079C2.69695 22.4396 4.67052 20.4661 7.03879 20.4661C44.9312 20.4661 2.0391 20.4661 40.0631 20.4661V23.4922C33.2214 23.4922 27.6954 23.4922 20.9853 23.4922C20.459 23.4922 19.9327 23.8869 19.9327 24.5448V42.3068H21.7747V25.5973H30.8531V42.3068C30.8531 42.8331 31.2478 43.3594 31.9057 43.3594H82.6921C83.2183 43.3594 83.7446 42.9647 83.7446 42.3068V1.91457C83.7446 1.38828 83.3499 0.862 82.6921 0.862H31.9057C31.3794 0.862 30.8531 1.25671 30.8531 1.91457V18.4925C28.3533 18.4925 39.6684 18.4925 6.90722 18.4925C3.48638 18.6241 0.723389 21.3871 0.723389 24.8079ZM32.8267 2.96713H81.6395V41.2543H32.8267V25.4658H40.8525C41.3788 25.4658 41.9051 25.071 41.9051 24.4132V19.4135C41.9051 18.8872 41.5104 18.3609 40.8525 18.3609H32.8267V2.96713Z" fill="white"/>
<path d="M19.405 10.7298C19.405 7.70364 16.9051 5.2038 13.879 5.2038C10.8529 5.2038 8.35303 7.70364 8.35303 10.7298C8.35303 13.7559 10.8529 16.2558 13.879 16.2558C16.9051 16.2558 19.405 13.7559 19.405 10.7298ZM10.3266 10.7298C10.3266 8.75621 11.9054 7.17736 13.879 7.17736C15.8526 7.17736 17.4314 8.75621 17.4314 10.7298C17.4314 12.7033 15.8526 14.2822 13.879 14.2822C11.9054 14.2822 10.3266 12.7033 10.3266 10.7298Z" fill="white"/>
</svg>
