<svg width="85" height="102" viewBox="0 0 85 102" fill="none" xmlns="http://www.w3.org/2000/svg">
<path d="M29.0158 101.391C29.2576 101.447 29.5095 101.442 29.7489 101.377C29.9884 101.312 30.2078 101.188 30.3875 101.018L42.358 88.4607L54.3284 101.018C54.4614 101.143 54.6181 101.241 54.7894 101.305C54.9607 101.369 55.1432 101.398 55.326 101.391H55.7001C55.9438 101.28 56.1533 101.107 56.3069 100.888C56.4604 100.669 56.5523 100.413 56.5729 100.147V80.5038H75.9003C78.2052 80.4717 80.4066 79.5445 82.0366 77.9193C83.6665 76.2941 84.5965 74.0992 84.6287 71.801V8.89214C84.6287 6.58401 83.7091 4.37042 82.0722 2.73832C80.4353 1.10623 78.2152 0.189331 75.9003 0.189331H8.81564C6.5007 0.189331 4.28058 1.10623 2.64367 2.73832C1.00676 4.37042 0.0871582 6.58401 0.0871582 8.89214V71.801C0.119399 74.0992 1.04936 76.2941 2.67933 77.9193C4.3093 79.5445 6.51074 80.4717 8.81564 80.5038H28.143V100.147C28.1636 100.413 28.2555 100.669 28.409 100.888C28.5626 101.107 28.7721 101.28 29.0158 101.391ZM56.5729 64.3415C58.1603 61.7565 59.0217 58.7937 59.0668 55.763C59.0668 51.3446 57.3064 47.1071 54.1729 43.9828C51.0394 40.8585 46.7894 39.1033 42.358 39.1033C37.9265 39.1033 33.6765 40.8585 30.543 43.9828C27.4095 47.1071 25.6491 51.3446 25.6491 55.763C25.6942 58.7937 26.5556 61.7565 28.143 64.3415V66.828H13.8033V13.8652H70.9126V66.828H56.5729V64.3415ZM28.143 55.763C28.1183 52.9547 28.9309 50.2023 30.4778 47.8552C32.0247 45.5082 34.236 43.6722 36.8312 42.5804C39.4263 41.4886 42.2883 41.1901 45.0539 41.7229C47.8195 42.2556 50.364 43.5956 52.3645 45.5727C54.365 47.5498 55.7313 50.0749 56.29 52.8276C56.8486 55.5802 56.5745 58.4363 55.5024 61.0334C54.4302 63.6304 52.6084 65.8514 50.2682 67.4143C47.9279 68.9772 45.1747 69.8117 42.358 69.8118C38.6094 69.812 35.0126 68.3358 32.3503 65.7047C29.688 63.0735 28.1759 59.5004 28.143 55.763ZM43.2308 85.8498C42.9977 85.622 42.6843 85.4945 42.358 85.4945C42.0316 85.4945 41.7182 85.622 41.4851 85.8498L30.6368 97.0392V67.574C33.7778 70.612 37.9819 72.3112 42.358 72.3112C46.734 72.3112 50.9381 70.612 54.0791 67.574V97.0392L43.2308 85.8498ZM8.81564 78.0173C7.17211 77.9855 5.60479 77.3204 4.44241 76.1614C3.28004 75.0024 2.61293 73.4397 2.58101 71.801V8.89214C2.58101 7.24348 3.23787 5.66234 4.40709 4.49656C5.57631 3.33078 7.16211 2.67585 8.81564 2.67585H75.9003C77.5538 2.67585 79.1396 3.33078 80.3088 4.49656C81.478 5.66234 82.1349 7.24348 82.1349 8.89214V71.801C82.103 73.4397 81.4359 75.0024 80.2735 76.1614C79.1111 77.3204 77.5438 77.9855 75.9003 78.0173H56.5729V69.3145H72.1595C72.4808 69.2865 72.7819 69.1465 73.0099 68.9192C73.2379 68.6918 73.3783 68.3916 73.4064 68.0713V12.6219C73.4064 12.2922 73.275 11.976 73.0412 11.7428C72.8074 11.5096 72.4902 11.3787 72.1595 11.3787H12.5564C12.2257 11.3787 11.9086 11.5096 11.6747 11.7428C11.4409 11.976 11.3095 12.2922 11.3095 12.6219V68.0713C11.3376 68.3916 11.478 68.6918 11.706 68.9192C11.9341 69.1465 12.2352 69.2865 12.5564 69.3145H28.143V78.0173H8.81564Z" fill="white"/>
</svg>
