<svg width="85" height="85" viewBox="0 0 85 85" fill="none" xmlns="http://www.w3.org/2000/svg">
<path d="M69.5425 31.8049V30.4413V4.53341C69.5425 2.27806 67.7072 0.442688 65.4518 0.442688H19.0903C16.8349 0.442688 14.9996 2.27806 14.9996 4.53341V30.4413V31.8049V35.8956C14.9996 38.9037 17.4458 41.3499 20.4539 41.3499H23.0938L22.3315 53.5375L25.0532 53.708L25.825 41.3499H31.3625V46.8042H28.6353V49.5314H55.9068V46.8042H53.1796V41.3499H58.7171L59.4889 53.7066L62.2106 53.5362L61.4484 41.3499H64.0882C67.0963 41.3499 69.5425 38.9037 69.5425 35.8956V31.8049ZM17.7267 4.53341C17.7267 3.78072 18.3376 3.16984 19.0903 3.16984H65.4518C66.2045 3.16984 66.8154 3.78072 66.8154 4.53341V30.4413H42.177C41.6793 26.4788 39.0544 23.1721 35.4791 21.709C36.3013 20.7531 36.8168 19.5259 36.8168 18.1692V15.442C36.8168 12.434 34.3705 9.98771 31.3625 9.98771C28.3544 9.98771 25.9082 12.434 25.9082 15.442V18.1692C25.9082 19.5259 26.4236 20.7531 27.2472 21.709C23.6719 23.1721 21.047 26.4788 20.5493 30.4413H17.7267V4.53341ZM28.6353 18.1692V15.442C28.6353 13.938 29.8584 12.7149 31.3625 12.7149C32.8665 12.7149 34.0896 13.938 34.0896 15.442V18.1692C34.0896 19.6732 32.8665 20.8963 31.3625 20.8963C29.8584 20.8963 28.6353 19.6732 28.6353 18.1692ZM31.3625 23.6235C35.4082 23.6235 38.768 26.5783 39.4212 30.4413H23.3037C23.9569 26.5783 27.3167 23.6235 31.3625 23.6235ZM50.4525 46.8042H34.0896V41.3499H50.4525V46.8042ZM66.8154 35.8956C66.8154 37.3996 65.5923 38.6228 64.0882 38.6228H20.4539C18.9498 38.6228 17.7267 37.3996 17.7267 35.8956V33.1685H66.8154V35.8956Z" fill="white"/>
<path d="M42.2709 19.5327H44.9981V26.461L53.6581 19.5327H61.3609C62.865 19.5327 64.0881 18.3096 64.0881 16.8056V8.62412C64.0881 7.1201 62.865 5.89697 61.3609 5.89697H42.2709C40.7669 5.89697 39.5438 7.1201 39.5438 8.62412V16.8056C39.5438 18.3096 40.7669 19.5327 42.2709 19.5327ZM42.2709 8.62412H61.3609V16.8056H52.7009L47.7252 20.7858V16.8056H42.2709V8.62412Z" fill="white"/>
<path d="M53.1797 11.3513H50.4525V14.0784H53.1797V11.3513Z" fill="white"/>
<path d="M47.7253 11.3513H44.9982V14.0784H47.7253V11.3513Z" fill="white"/>
<path d="M58.6339 11.3513H55.9068V14.0784H58.6339V11.3513Z" fill="white"/>
<path d="M60.0848 63.2516L61.2739 82.2571H23.2683L24.4574 63.2516L21.7343 63.0825L20.3666 84.9843H64.1755L62.8079 63.0825L60.0848 63.2516Z" fill="white"/>
<path d="M12.1265 62.8221C13.0565 61.8431 13.636 60.53 13.636 59.0764V56.3493C13.636 53.3412 11.1897 50.895 8.18169 50.895C5.17364 50.895 2.72739 53.3412 2.72739 56.3493V59.0764C2.72739 60.53 3.30691 61.8431 4.23687 62.8221C1.71289 64.2171 0.000244141 66.9033 0.000244141 69.985V75.4393H16.3631V69.985C16.3631 66.9033 14.6505 64.2171 12.1265 62.8221ZM5.45454 59.0764V56.3493C5.45454 54.8452 6.67767 53.6221 8.18169 53.6221C9.68571 53.6221 10.9088 54.8452 10.9088 56.3493V59.0764C10.9088 60.5804 9.68571 61.8036 8.18169 61.8036C6.67767 61.8036 5.45454 60.5804 5.45454 59.0764ZM13.636 72.7121H2.72739V69.985C2.72739 66.977 5.17364 64.5307 8.18169 64.5307C11.1897 64.5307 13.636 66.977 13.636 69.985V72.7121Z" fill="white"/>
<path d="M80.3052 62.8221C81.2352 61.8431 81.8147 60.53 81.8147 59.0764V56.3493C81.8147 53.3412 79.3684 50.895 76.3604 50.895C73.3524 50.895 70.9061 53.3412 70.9061 56.3493V59.0764C70.9061 60.53 71.4856 61.8431 72.4156 62.8221C69.8916 64.2171 68.179 66.9033 68.179 69.985V75.4393H84.5418V69.985C84.5418 66.9033 82.8292 64.2171 80.3052 62.8221ZM73.6333 59.0764V56.3493C73.6333 54.8452 74.8564 53.6221 76.3604 53.6221C77.8644 53.6221 79.0875 54.8452 79.0875 56.3493V59.0764C79.0875 60.5804 77.8644 61.8036 76.3604 61.8036C74.8564 61.8036 73.6333 60.5804 73.6333 59.0764ZM81.8147 72.7121H70.9061V69.985C70.9061 66.977 73.3524 64.5307 76.3604 64.5307C79.3684 64.5307 81.8147 66.977 81.8147 69.985V72.7121Z" fill="white"/>
<path d="M27.2716 69.9849V72.7121H38.1802V69.9849H35.4531V63.1671C35.4531 60.159 33.0068 57.7128 29.9988 57.7128H27.2716V60.4399H29.9988C31.5028 60.4399 32.7259 61.663 32.7259 63.1671V69.9849H27.2716Z" fill="white"/>
<path d="M54.5431 60.4399H57.2703V57.7128H54.5431C51.5351 57.7128 49.0888 60.159 49.0888 63.1671V69.9849H46.3617V72.7121H57.2703V69.9849H51.816V63.1671C51.816 61.663 53.0391 60.4399 54.5431 60.4399Z" fill="white"/>
<path d="M24.5445 57.7128H21.8173V60.4399H24.5445V57.7128Z" fill="white"/>
<path d="M62.7246 57.7128H59.9974V60.4399H62.7246V57.7128Z" fill="white"/>
</svg>
